<svg width="160" height="32" viewBox="0 0 160 32" fill="none" xmlns="http://www.w3.org/2000/svg">
<g clip-path="url(#clip0_4_2)">
<path d="M59.4 18.5L58.28 24.61C56.5766 25.3286 54.7487 25.7058 52.9 25.72C49.6 25.72 48.23 24.33 48.64 22.09C49.05 19.85 51.3 18.52 54 18.55C54.9199 18.5345 55.8349 18.687 56.7 19L56.81 18.36C57.06 17.02 56.31 16.22 54.52 16.22C53.3491 16.2446 52.2076 16.5906 51.22 17.22C50.9203 17.0497 50.6754 16.7974 50.5142 16.4927C50.353 16.188 50.2821 15.8436 50.31 15.5C51.7084 14.4742 53.3957 13.9176 55.13 13.91C58.08 13.91 60.01 15.24 59.4 18.54M53.74 23.68C54.5425 23.6754 55.3404 23.5576 56.11 23.33L56.55 20.93C55.7691 20.6154 54.9316 20.4656 54.09 20.49C52.78 20.49 51.8 20.93 51.61 21.99C51.42 23.05 52.1 23.68 53.74 23.68Z" fill="white"/>
<path d="M59.8306 18.59L58.7106 24.7C57.0072 25.4186 55.1793 25.7958 53.3306 25.81C50.0306 25.81 48.6606 24.42 49.0706 22.18C49.4806 19.94 51.7306 18.61 54.4306 18.64C55.3505 18.6245 56.2655 18.777 57.1306 19.09L57.2406 18.45C57.4906 17.11 56.7406 16.31 54.9506 16.31C53.7797 16.3346 52.6382 16.6806 51.6506 17.31C51.3509 17.1397 51.106 16.8874 50.9448 16.5827C50.7836 16.278 50.7128 15.9336 50.7406 15.59C52.139 14.5642 53.8263 14.0076 55.5606 14C58.5106 14 60.4406 15.33 59.8306 18.63M54.1706 23.77C54.9731 23.7654 55.771 23.6476 56.5406 23.42L56.9806 21.02C56.1997 20.7054 55.3622 20.5556 54.5206 20.58C53.2106 20.58 52.2306 21.02 52.0406 22.08C51.8506 23.14 52.5306 23.77 54.1706 23.77Z" fill="#2C3038"/>
<path d="M135.15 18.5L134 24.61C132.3 25.3276 130.475 25.7047 128.63 25.72C125.32 25.72 123.95 24.33 124.36 22.09C124.77 19.85 127.03 18.52 129.73 18.55C130.645 18.5252 131.556 18.6675 132.42 18.97L132.53 18.33C132.78 16.99 132.03 16.19 130.24 16.19C129.069 16.2146 127.928 16.5606 126.94 17.19C126.64 17.0197 126.395 16.7674 126.234 16.4627C126.073 16.158 126.002 15.8136 126.03 15.47C127.428 14.4442 129.116 13.8876 130.85 13.88C133.85 13.88 135.73 15.21 135.12 18.51M129.46 23.65C130.263 23.6462 131.061 23.5284 131.83 23.3L132.27 20.9C131.489 20.5854 130.652 20.4356 129.81 20.46C128.5 20.46 127.53 20.9 127.33 21.96C127.13 23.02 127.82 23.65 129.46 23.65Z" fill="#2C3038"/>
<path d="M72.33 19.82C72.5994 18.1539 73.4504 16.6371 74.7318 15.5387C76.0132 14.4404 77.6423 13.8314 79.33 13.82C80.6303 13.7665 81.9003 14.2221 82.87 15.09C82.4978 15.8985 81.8779 16.5675 81.1 17C80.8248 16.7255 80.4968 16.5096 80.1359 16.3652C79.775 16.2209 79.3886 16.151 79 16.16C78.016 16.1806 77.0741 16.5633 76.3546 17.2349C75.635 17.9065 75.1884 18.8197 75.1 19.8C74.74 21.71 75.45 23.41 77.69 23.41C78.6568 23.4101 79.5935 23.0743 80.34 22.46C80.6555 22.6515 80.919 22.9177 81.1073 23.2351C81.2957 23.5525 81.4031 23.9113 81.42 24.28C80.2245 25.2095 78.7543 25.7159 77.24 25.72C73.67 25.72 71.69 23.55 72.38 19.82" fill="#2C3038"/>
<path d="M82.13 19.8C82.4143 18.1298 83.2777 16.613 84.5687 15.5159C85.8597 14.4187 87.4958 13.8112 89.19 13.8C92.64 13.8 94.62 16.25 93.97 19.8C93.6708 21.4564 92.8007 22.9556 91.5109 24.0371C90.2211 25.1186 88.5932 25.7141 86.91 25.72C83.46 25.72 81.48 23.29 82.13 19.8M91.28 19.8C91.68 17.65 90.72 16.16 88.72 16.16C87.736 16.1806 86.7941 16.5633 86.0746 17.2349C85.355 17.9065 84.9084 18.8197 84.82 19.8C84.42 21.92 85.38 23.38 87.39 23.38C88.3629 23.3586 89.2947 22.9832 90.0107 22.3242C90.7268 21.6652 91.1781 20.7678 91.28 19.8" fill="#2C3038"/>
<path d="M105.24 24.33C105.55 23.5628 106.101 22.9171 106.81 22.49C107.706 23.2642 108.867 23.6619 110.05 23.6C111.63 23.6 112.31 23.01 112.45 22.25C112.59 21.49 112.03 21.07 110.08 20.76C108.13 20.45 106.4 19.76 106.83 17.37C107.22 15.29 109.34 13.87 112.17 13.87C113.587 13.7832 114.993 14.1664 116.17 14.96C115.94 15.7292 115.462 16.4008 114.81 16.87C113.868 16.2968 112.783 16.0021 111.68 16.02C110.27 16.02 109.57 16.47 109.44 17.18C109.31 17.89 109.73 18.26 111.59 18.57C113.95 18.95 115.59 19.77 115.16 21.99C114.73 24.21 112.68 25.74 109.61 25.74C108.024 25.868 106.452 25.3609 105.24 24.33" fill="#2C3038"/>
<path d="M148 19.8C148.285 18.1281 149.149 16.61 150.442 15.5127C151.736 14.4153 153.374 13.8089 155.07 13.8C158.52 13.8 160.49 16.25 159.85 19.8C159.549 21.4555 158.678 22.9536 157.389 24.0348C156.1 25.116 154.473 25.7121 152.79 25.72C149.34 25.72 147.36 23.29 148 19.8M157.16 19.8C157.55 17.65 156.6 16.16 154.6 16.16C153.618 16.1911 152.681 16.577 151.962 17.2463C151.243 17.9156 150.791 18.8229 150.69 19.8C150.3 21.92 151.26 23.38 153.27 23.38C154.243 23.3586 155.175 22.9832 155.891 22.3242C156.607 21.6652 157.058 20.7678 157.16 19.8Z" fill="#2C3038"/>
<path d="M145.82 10.93L145.21 14.25C144.506 13.9918 143.759 13.8729 143.01 13.9C141.296 13.8905 139.634 14.4877 138.318 15.5858C137.002 16.6839 136.117 18.2121 135.82 19.9C135.12 23.67 137.24 25.75 140.92 25.75C142.674 25.7284 144.405 25.3401 146 24.61L148.66 10.15L145.82 10.93ZM143.59 23C142.859 23.258 142.085 23.3767 141.31 23.35C139.31 23.35 138.14 21.99 138.54 19.79C138.692 18.8023 139.192 17.9012 139.949 17.2487C140.706 16.5962 141.671 16.235 142.67 16.23C143.397 16.1738 144.124 16.3451 144.75 16.72L143.59 23Z" fill="#2C3038"/>
<path d="M125 14.35H120.82L121.36 11.44L118.58 12.21L116.79 21.92C116.29 24.61 117.86 25.7 120.27 25.7C121.559 25.6907 122.811 25.2664 123.84 24.49C123.862 24.1399 123.802 23.7896 123.664 23.4668C123.527 23.144 123.317 22.8575 123.05 22.63C122.479 23.0841 121.779 23.3465 121.05 23.38C119.94 23.38 119.24 22.96 119.54 21.31L120.42 16.52H124.6C124.751 16.1643 124.859 15.7916 124.92 15.41C124.996 15.0621 125.023 14.7053 125 14.35" fill="#2C3038"/>
<path d="M135.8 26.74L135.11 30.07C134.752 30.2319 134.363 30.3171 133.97 30.32C133.14 30.32 132.67 29.85 132.85 29C132.927 28.6198 133.133 28.2781 133.434 28.0336C133.735 27.7891 134.112 27.657 134.5 27.66C134.667 27.6493 134.835 27.6767 134.99 27.74L135.2 26.74C135.399 26.7133 135.601 26.7133 135.8 26.74M134.58 29.74L134.88 28.32C134.738 28.2358 134.574 28.1974 134.41 28.21C134.185 28.2167 133.968 28.2994 133.796 28.4446C133.623 28.5899 133.505 28.7891 133.46 29.01C133.36 29.51 133.61 29.82 134.07 29.82C134.243 29.8178 134.415 29.7909 134.58 29.74" fill="#2C3038"/>
<path d="M138.23 29.15H136.45C136.431 29.235 136.432 29.3234 136.453 29.4079C136.474 29.4925 136.516 29.5707 136.573 29.6361C136.631 29.7016 136.703 29.7524 136.785 29.7843C136.866 29.8163 136.953 29.8285 137.04 29.82C137.326 29.8109 137.603 29.7207 137.84 29.56C137.901 29.6142 137.948 29.6828 137.976 29.7597C138.004 29.8365 138.012 29.9191 138 30C137.67 30.226 137.28 30.3479 136.88 30.35C136.717 30.3587 136.554 30.3272 136.406 30.2584C136.258 30.1896 136.129 30.0855 136.03 29.9553C135.931 29.825 135.866 29.6726 135.84 29.5113C135.814 29.35 135.827 29.1847 135.88 29.03C135.944 28.6628 136.131 28.3286 136.412 28.083C136.692 27.8373 137.048 27.6951 137.42 27.68C137.565 27.6641 137.712 27.685 137.847 27.7406C137.981 27.7963 138.1 27.8849 138.192 27.9985C138.283 28.112 138.345 28.2467 138.371 28.3903C138.397 28.5338 138.386 28.6816 138.34 28.82C138.315 28.9421 138.281 29.0624 138.24 29.18M137.76 28.78C137.82 28.48 137.76 28.18 137.32 28.17C137.143 28.1765 136.974 28.2391 136.835 28.3489C136.697 28.4586 136.597 28.6096 136.55 28.78H137.76Z" fill="#2C3038"/>
<path d="M138.44 30C138.516 29.8246 138.646 29.6777 138.81 29.58C139.008 29.7551 139.266 29.845 139.53 29.83C139.89 29.83 140.04 29.7 140.08 29.53C140.12 29.36 139.99 29.26 139.55 29.19C139.11 29.12 138.73 28.96 138.84 28.43C138.92 28.1769 139.085 27.9596 139.308 27.8154C139.53 27.6712 139.796 27.6091 140.06 27.64C140.378 27.6218 140.693 27.7059 140.96 27.88C140.9 28.0556 140.789 28.209 140.64 28.32C140.43 28.189 140.187 28.1197 139.94 28.12C139.62 28.12 139.46 28.23 139.43 28.39C139.4 28.55 139.49 28.63 139.91 28.7C140.33 28.77 140.8 28.97 140.69 29.47C140.617 29.7415 140.448 29.9773 140.215 30.1337C139.981 30.29 139.699 30.3562 139.42 30.32C139.24 30.3356 139.06 30.3153 138.888 30.2604C138.716 30.2055 138.557 30.1169 138.42 30" fill="#2C3038"/>
<path d="M144.13 26.74L143.44 30.07C143.078 30.2319 142.686 30.317 142.29 30.32C141.47 30.32 141 29.85 141.18 29C141.257 28.6198 141.463 28.2781 141.764 28.0336C142.065 27.7891 142.442 27.657 142.83 27.66C142.997 27.6504 143.165 27.6777 143.32 27.74L143.53 26.74C143.63 26.7301 143.73 26.7301 143.83 26.74C143.93 26.7304 144.03 26.7304 144.13 26.74M142.91 29.74L143.2 28.32C143.063 28.2347 142.901 28.1961 142.74 28.21C142.506 28.2053 142.278 28.2828 142.095 28.4289C141.912 28.5751 141.787 28.7807 141.74 29.01C141.64 29.51 141.89 29.82 142.34 29.82C142.516 29.8187 142.691 29.7917 142.86 29.74" fill="#2C3038"/>
<path d="M146.56 29.15H144.78C144.759 29.2344 144.758 29.3226 144.778 29.4073C144.798 29.492 144.838 29.5706 144.895 29.6364C144.952 29.7022 145.024 29.7533 145.105 29.7852C145.186 29.8172 145.273 29.8291 145.36 29.82C145.646 29.8125 145.924 29.7222 146.16 29.56C146.222 29.608 146.271 29.6706 146.302 29.7422C146.333 29.8138 146.346 29.8921 146.34 29.97C146.01 30.196 145.62 30.3179 145.22 30.32C145.057 30.3287 144.894 30.2972 144.746 30.2284C144.598 30.1596 144.468 30.0555 144.37 29.9253C144.271 29.795 144.206 29.6426 144.18 29.4813C144.154 29.32 144.167 29.1547 144.22 29C144.286 28.632 144.475 28.2976 144.757 28.052C145.039 27.8065 145.396 27.6647 145.77 27.65C145.915 27.6341 146.062 27.655 146.197 27.7106C146.331 27.7663 146.45 27.8549 146.542 27.9685C146.633 28.082 146.695 28.2167 146.721 28.3603C146.747 28.5038 146.736 28.6516 146.69 28.79C146.69 28.92 146.63 29.01 146.59 29.15M146.1 28.75C146.17 28.45 146.1 28.15 145.67 28.14C145.493 28.1433 145.321 28.2047 145.182 28.315C145.043 28.4252 144.944 28.578 144.9 28.75H146.1Z" fill="#2C3038"/>
<path d="M150 26.78L149.28 30.24C149.18 30.2498 149.08 30.2498 148.98 30.24C148.884 30.2498 148.786 30.2498 148.69 30.24L149.26 27.52L148.59 27.8C148.535 27.7265 148.496 27.6422 148.475 27.5527C148.454 27.4631 148.453 27.3703 148.47 27.28L149.57 26.78H149.79H150" fill="#2C3038"/>
<path d="M152.57 29.28C152.486 29.5916 152.294 29.8633 152.029 30.0465C151.763 30.2297 151.441 30.3124 151.12 30.28C150.5 30.28 149.96 30.05 150.12 29.36C150.174 29.1513 150.269 28.9555 150.4 28.7839C150.53 28.6122 150.693 28.4681 150.88 28.36C150.755 28.2798 150.66 28.1616 150.608 28.023C150.555 27.8843 150.549 27.7325 150.59 27.59C150.652 27.2938 150.818 27.0298 151.059 26.8461C151.299 26.6625 151.598 26.5716 151.9 26.59C152.58 26.59 152.9 26.95 152.83 27.5C152.731 27.8459 152.501 28.1398 152.19 28.32C152.341 28.3948 152.462 28.5187 152.533 28.6715C152.604 28.8242 152.62 28.9965 152.58 29.16M151.99 29.23C152.06 28.92 151.77 28.78 151.42 28.62L151.26 28.54C150.999 28.693 150.806 28.9397 150.72 29.23C150.65 29.6 150.91 29.72 151.25 29.72C151.59 29.72 151.92 29.6 151.99 29.23M151.17 27.49C151.11 27.78 151.35 27.91 151.65 28.05L151.78 28.11C151.895 28.0532 151.997 27.9733 152.08 27.8752C152.162 27.7771 152.224 27.663 152.26 27.54C152.32 27.23 152.11 27.08 151.8 27.08C151.664 27.0644 151.526 27.0969 151.411 27.1717C151.296 27.2465 151.211 27.3591 151.17 27.49" fill="#2C3038"/>
<path d="M152.93 30C153.01 29.8051 153.15 29.6406 153.33 29.53C153.504 29.7069 153.742 29.8075 153.99 29.81C154.185 29.8275 154.379 29.7701 154.534 29.6493C154.688 29.5286 154.79 29.3536 154.82 29.16C154.9 28.78 154.72 28.55 154.25 28.55C153.94 28.55 153.69 28.68 153.46 28.68C153.411 28.6947 153.359 28.6947 153.31 28.68L153.69 26.85H155.69C155.7 26.9464 155.7 27.0436 155.69 27.14C155.668 27.2313 155.641 27.3214 155.61 27.41H154.13L153.99 28.12C154.134 28.0659 154.286 28.0388 154.44 28.04C155.27 28.04 155.59 28.46 155.44 29.16C155.374 29.5202 155.177 29.8432 154.887 30.0667C154.598 30.2901 154.235 30.3982 153.87 30.37C153.7 30.3797 153.53 30.3545 153.37 30.296C153.21 30.2376 153.064 30.147 152.94 30.03" fill="#2C3038"/>
<path d="M155.73 30C155.81 29.8051 155.95 29.6406 156.13 29.53C156.216 29.6185 156.318 29.6888 156.432 29.7369C156.545 29.785 156.667 29.8099 156.79 29.81C156.985 29.8275 157.179 29.7701 157.334 29.6493C157.488 29.5286 157.59 29.3536 157.62 29.16C157.7 28.78 157.52 28.55 157.05 28.55C156.74 28.55 156.49 28.68 156.26 28.68C156.211 28.696 156.159 28.696 156.11 28.68L156.48 26.85H158.48C158.481 27.0432 158.441 27.2344 158.36 27.41H156.89L156.74 28.12C156.888 28.067 157.043 28.04 157.2 28.04C158.03 28.04 158.35 28.46 158.2 29.16C158.134 29.5202 157.937 29.8432 157.647 30.0667C157.358 30.2901 156.995 30.3982 156.63 30.37C156.46 30.3797 156.29 30.3545 156.13 30.296C155.97 30.2376 155.824 30.147 155.7 30.03" fill="#2C3038"/>
<path d="M107 10.22H96.29L96.83 11.93C96.8397 12.0197 96.8397 12.1103 96.83 12.2C96.83 12.25 96.83 12.29 96.83 12.34L94.43 25.34H104.34C104.521 24.941 104.652 24.5212 104.73 24.09C104.79 23.7056 104.79 23.3144 104.73 22.93H97.57L98.33 18.78H104.59C104.762 18.4 104.9 18.005 105 17.6C105.071 17.2042 105.098 16.8017 105.08 16.4H98.78L99.47 12.65H106.47C106.635 12.2615 106.756 11.8556 106.83 11.44C106.909 11.0384 106.939 10.6288 106.92 10.22" fill="#2C3038"/>
<path d="M67.15 13.85C66.1321 13.8552 65.1207 14.0136 64.15 14.32C64.0774 14.3351 64.0026 14.3351 63.93 14.32C63.8508 14.3359 63.7692 14.3359 63.69 14.32L61.81 13.76L61.47 15.62L59.67 25.37C60.0985 25.4509 60.5341 25.4877 60.97 25.48C61.4292 25.4884 61.888 25.4515 62.34 25.37L63.89 16.92C64.6972 16.5155 65.5871 16.3033 66.49 16.3C68.21 16.3 69.06 17.08 68.68 19.14L67.53 25.37C67.9651 25.4513 68.4074 25.4881 68.85 25.48C69.3091 25.4866 69.7678 25.4497 70.22 25.37L71.49 18.5C71.96 15.93 70.76 13.85 67.15 13.85" fill="#2C3038"/>
<path d="M48.5 14.23C48.99 11.56 47.5 10.05 43.5 10.05H43.41H37.81L38.43 11.87C38.4453 11.966 38.4453 12.0639 38.43 12.16C38.4404 12.2229 38.4404 12.2871 38.43 12.35L36.03 25.35C37.5633 25.6323 39.1212 25.7596 40.68 25.73C44.96 25.73 47.34 23.96 47.87 21.08C47.9861 20.7209 48.0298 20.3423 47.9985 19.9662C47.9672 19.5902 47.8614 19.224 47.6875 18.8891C47.5135 18.5542 47.2748 18.2572 46.9851 18.0153C46.6954 17.7734 46.3606 17.5914 46 17.48C46.6649 17.2034 47.2462 16.7581 47.6863 16.1881C48.1265 15.6182 48.4104 14.9432 48.51 14.23M45.24 21C44.93 22.7 43.75 23.46 41.24 23.46C40.5316 23.4613 39.8237 23.4213 39.12 23.34L39.97 18.74H42.51C44.51 18.74 45.51 19.49 45.23 21M45.88 14.28C45.62 15.69 44.7 16.5 42.71 16.5H40.39L41.16 12.32C41.9 12.25 42.61 12.22 43.3 12.22C45.3 12.22 46.13 12.98 45.89 14.28" fill="#2C3038"/>
<path d="M31.09 0H0V31.09H31.09V0Z" fill="white"/>
<path d="M0.740005 15.63L11.29 11V7.64999C14.6004 7.13471 17.6163 5.44937 19.79 2.89999V2.89999L30.35 11.52V0.73999H0.740005V15.63Z" fill="#D70032"/>
<path d="M11.31 25.41H19.79V2.91C17.6172 5.4536 14.6054 7.13509 11.3 7.65V7.65V11L0.740005 15.63V18.94L11.3 14.31V11L14.69 9.52V12.8L11.31 14.3V17.54L14.7 16.06V19.29L11.31 20.78V17.54L0.740005 22.17V25.41L11.31 20.78V25.41Z" fill="white"/>
<path d="M11.31 17.54V14.3L11.3 14.31L0.740005 18.94V22.18L11.31 17.54Z" fill="#EE801D"/>
<path d="M11.31 20.78L0.740005 25.41H11.31V20.78Z" fill="#EE801D"/>
<path d="M11.31 14.3L14.69 12.83V9.56L11.3 11.05V14.31L11.31 14.3Z" fill="#EE801D"/>
<path d="M11.31 14.3L11.3 14.31L11.31 14.3Z" fill="#FF6B00"/>
<path d="M11.31 17.54V20.78L14.7 19.29V16.06L11.31 17.54Z" fill="#EE801D"/>
<path d="M19.8 25.41H30.35V11.53L19.79 2.91L19.8 25.41Z" fill="#EE801D"/>
<path d="M19.79 25.41H19.8L19.79 2.91V25.41Z" fill="#FF6B00"/>
<path d="M19.8 25.41H19.79H11.31H0.740005V30.34H30.35V25.41H19.8Z" fill="#0257A0"/>
</g>
<defs>
<clipPath id="clip0_4_2">
<rect width="160" height="31.09" fill="white"/>
</clipPath>
</defs>
</svg>
