<svg width="89" height="89" viewBox="0 0 89 89" fill="none" xmlns="http://www.w3.org/2000/svg">
<path d="M0.0200195 44.25L31.42 30.62V20.54C41.51 18.98 49.62 14.21 56.65 6.45L88.02 32.06V0H0.0200195V44.25Z" fill="#DE0048"/>
<path d="M31.42 73.33H56.62V6.45001C49.62 14.2 41.48 18.98 31.39 20.54V30.64L0 44.24V54.09L31.42 40.33V30.6L41.51 26.2V35.92L31.42 40.32V49.92L41.47 45.52V55.15L31.42 59.55V49.94L0 63.71V73.33L31.42 59.56V73.33Z" fill="white"/>
<path d="M31.42 49.93L31.43 49.92V40.32L31.4 40.33L0 54.09V63.71L31.42 49.94V49.93Z" fill="#EE8600"/>
<path d="M31.43 59.55L0 73.33H31.43V59.55Z" fill="#EE8600"/>
<path d="M31.43 40.32L41.48 35.92V26.23L31.39 30.64V40.33L31.43 40.32Z" fill="#EE8600"/>
<path d="M31.43 40.32L31.39 40.33L31.43 40.32Z" fill="#EB7915"/>
<path d="M31.42 49.94V59.56L41.48 55.14V45.53L31.43 49.92V49.94H31.42Z" fill="#EE8600"/>
<path d="M31.42 49.94H31.43V49.92L31.42 49.93V49.94Z" fill="#EB7915"/>
<path d="M56.65 73.33H88V32.07L56.62 6.45001L56.65 73.33Z" fill="#EE8600"/>
<path d="M56.62 73.33H56.65L56.62 6.45001V73.33Z" fill="#EB7915"/>
<path d="M88.01 87.99H0.0200195V88.01H88.01V87.99Z" fill="#004D9C"/>
<path d="M56.65 73.33H56.62H31.42H0.0200195V87.99H88V73.33H56.65Z" fill="#0051A0"/>
</svg>
